<svg width="85" height="85" viewBox="0 0 85 85" fill="none" xmlns="http://www.w3.org/2000/svg">
<g id="bell">
<path id="Vector" d="M63.8648 28.2233C63.8648 22.648 61.6501 17.3011 57.7077 13.3588C53.7654 9.41644 48.4185 7.20166 42.8432 7.20166C37.2679 7.20166 31.9209 9.41644 27.9786 13.3588C24.0363 17.3011 21.8215 22.648 21.8215 28.2233C21.8215 52.7486 11.3107 59.7558 11.3107 59.7558H74.3757C74.3757 59.7558 63.8648 52.7486 63.8648 28.2233Z" stroke="#1E1E1E" stroke-width="5.60578" stroke-linecap="round" stroke-linejoin="round"/>
<path id="Vector_2" d="M48.9042 73.7705C48.2883 74.8324 47.4041 75.7138 46.3404 76.3265C45.2766 76.9392 44.0706 77.2617 42.843 77.2617C41.6154 77.2617 40.4093 76.9392 39.3456 76.3265C38.2818 75.7138 37.3977 74.8324 36.7817 73.7705" stroke="#1E1E1E" stroke-width="5.60578" stroke-linecap="round" stroke-linejoin="round"/>
</g>
</svg>
