<svg width="85" height="85" viewBox="0 0 85 85" fill="none" xmlns="http://www.w3.org/2000/svg">
<g id="camera">
<path id="Vector" d="M80.5829 66.7624C80.5829 68.6208 79.8446 70.4031 78.5305 71.7172C77.2164 73.0313 75.4341 73.7696 73.5756 73.7696H10.5106C8.65221 73.7696 6.8699 73.0313 5.55579 71.7172C4.24168 70.4031 3.50342 68.6208 3.50342 66.7624V28.2226C3.50342 26.3642 4.24168 24.5819 5.55579 23.2678C6.8699 21.9537 8.65221 21.2154 10.5106 21.2154H24.5251L31.5323 10.7046H52.554L59.5612 21.2154H73.5756C75.4341 21.2154 77.2164 21.9537 78.5305 23.2678C79.8446 24.5819 80.5829 26.3642 80.5829 28.2226V66.7624Z" stroke="#1E1E1E" stroke-width="5.60578" stroke-linecap="round" stroke-linejoin="round"/>
<path id="Vector_2" d="M42.0433 59.7555C49.7832 59.7555 56.0577 53.481 56.0577 45.741C56.0577 38.001 49.7832 31.7266 42.0433 31.7266C34.3033 31.7266 28.0288 38.001 28.0288 45.741C28.0288 53.481 34.3033 59.7555 42.0433 59.7555Z" stroke="#1E1E1E" stroke-width="5.60578" stroke-linecap="round" stroke-linejoin="round"/>
</g>
</svg>
