<svg width="30" height="30" viewBox="0 0 30 30" fill="none" xmlns="http://www.w3.org/2000/svg">
<path fill-rule="evenodd" clip-rule="evenodd" d="M10.8932 21.0324C10.8971 22.1364 10.2517 23.1341 9.25832 23.5594C8.26492 23.9847 7.1195 23.7538 6.35693 22.9746C5.59434 22.1953 5.36503 21.0214 5.77607 20.0009C6.1871 18.9806 7.15739 18.3149 8.23387 18.3149C8.93787 18.3136 9.61355 18.5992 10.1123 19.1088C10.611 19.6184 10.8919 20.3103 10.8932 21.0324Z" stroke="#7707BB" stroke-width="3.75" stroke-linecap="round" stroke-linejoin="round"/>
<path fill-rule="evenodd" clip-rule="evenodd" d="M23.9545 21.0324C23.9584 22.1364 23.313 23.1341 22.3196 23.5594C21.3263 23.9847 20.1808 23.7538 19.4183 22.9746C18.6556 22.1953 18.4264 21.0214 18.8374 20.0009C19.2484 18.9806 20.2186 18.3149 21.2951 18.3149C21.9991 18.3136 22.6749 18.5992 23.1735 19.1088C23.6723 19.6184 23.9531 20.3103 23.9545 21.0324Z" stroke="#7707BB" stroke-width="3.75" stroke-linecap="round" stroke-linejoin="round"/>
<path d="M3.26369 12.488C3.08518 12.974 3.33447 13.5127 3.82048 13.6912C4.30651 13.8698 4.84522 13.6205 5.02373 13.1345L3.26369 12.488ZM5.07849 10.2663L4.20607 9.92305C4.20347 9.92967 4.20093 9.93634 4.19848 9.94303L5.07849 10.2663ZM12.246 7.1875C12.7637 7.1875 13.1835 6.76776 13.1835 6.25C13.1835 5.73224 12.7637 5.3125 12.246 5.3125V7.1875ZM4.14372 13.7487C4.66148 13.7487 5.08122 13.329 5.08122 12.8112C5.08122 12.2935 4.66148 11.8737 4.14372 11.8737V13.7487ZM2.54837 12.8112L2.54124 13.7487H2.54837V12.8112ZM1.21871 14.155L0.281214 14.1482V14.155H1.21871ZM0.281214 16.25C0.281214 16.7677 0.700947 17.1875 1.21871 17.1875C1.73648 17.1875 2.15622 16.7677 2.15622 16.25H0.281214ZM4.14372 11.8737C3.62594 11.8737 3.20622 12.2935 3.20622 12.8112C3.20622 13.329 3.62594 13.7487 4.14372 13.7487V11.8737ZM12.246 13.7487C12.7637 13.7487 13.1835 13.329 13.1835 12.8112C13.1835 12.2935 12.7637 11.8737 12.246 11.8737V13.7487ZM21.9045 13.1345C22.083 13.6205 22.6217 13.8698 23.1077 13.6912C23.5937 13.5127 23.843 12.974 23.6645 12.488L21.9045 13.1345ZM21.8497 10.2663L22.7297 9.94303C22.7272 9.93634 22.7247 9.92967 22.7221 9.92305L21.8497 10.2663ZM12.246 5.3125C11.7282 5.3125 11.3085 5.73224 11.3085 6.25C11.3085 6.76776 11.7282 7.1875 12.246 7.1875V5.3125ZM22.7845 13.7487C23.3022 13.7487 23.722 13.329 23.722 12.8112C23.722 12.2935 23.3022 11.8737 22.7845 11.8737V13.7487ZM12.246 11.8737C11.7282 11.8737 11.3085 12.2935 11.3085 12.8112C11.3085 13.329 11.7282 13.7487 12.246 13.7487V11.8737ZM22.7845 11.8737C22.2667 11.8737 21.847 12.2935 21.847 12.8112C21.847 13.329 22.2667 13.7487 22.7845 13.7487V11.8737ZM26.7027 12.8112V13.7487H26.709L26.7027 12.8112ZM28.0312 14.155H28.9687V14.1482L28.0312 14.155ZM27.0937 16.25C27.0937 16.7677 27.5135 17.1875 28.0312 17.1875C28.549 17.1875 28.9687 16.7677 28.9687 16.25H27.0937ZM18.6359 21.97C19.1536 21.97 19.5734 21.5503 19.5734 21.0325C19.5734 20.5148 19.1536 20.095 18.6359 20.095V21.97ZM10.8932 20.095C10.3754 20.095 9.95566 20.5148 9.95566 21.0325C9.95566 21.5503 10.3754 21.97 10.8932 21.97V20.095ZM23.9545 20.095C23.4367 20.095 23.017 20.5148 23.017 21.0325C23.017 21.5503 23.4367 21.97 23.9545 21.97V20.095ZM26.7016 21.0325L26.7087 20.095H26.7016V21.0325ZM28.0312 19.6888L28.9687 19.6955V19.6888H28.0312ZM28.9687 16.25C28.9687 15.7323 28.549 15.3125 28.0312 15.3125C27.5135 15.3125 27.0937 15.7323 27.0937 16.25H28.9687ZM5.57453 21.97C6.09229 21.97 6.51203 21.5503 6.51203 21.0325C6.51203 20.5148 6.09229 20.095 5.57453 20.095V21.97ZM2.54837 21.0325V20.095H2.54124L2.54837 21.0325ZM1.21871 19.6888H0.281189L0.281238 19.6955L1.21871 19.6888ZM2.15622 16.25C2.15622 15.7323 1.73648 15.3125 1.21871 15.3125C0.700947 15.3125 0.281214 15.7323 0.281214 16.25H2.15622ZM13.1835 6.25C13.1835 5.73224 12.7637 5.3125 12.246 5.3125C11.7282 5.3125 11.3085 5.73224 11.3085 6.25H13.1835ZM11.3085 12.8112C11.3085 13.329 11.7282 13.7487 12.246 13.7487C12.7637 13.7487 13.1835 13.329 13.1835 12.8112H11.3085ZM1.21871 15.3125C0.700947 15.3125 0.281214 15.7323 0.281214 16.25C0.281214 16.7677 0.700947 17.1875 1.21871 17.1875V15.3125ZM3.64768 17.1875C4.16544 17.1875 4.58518 16.7677 4.58518 16.25C4.58518 15.7323 4.16544 15.3125 3.64768 15.3125V17.1875ZM28.0312 17.1875C28.549 17.1875 28.9687 16.7677 28.9687 16.25C28.9687 15.7323 28.549 15.3125 28.0312 15.3125V17.1875ZM25.4999 15.3125C24.9821 15.3125 24.5624 15.7323 24.5624 16.25C24.5624 16.7677 24.9821 17.1875 25.4999 17.1875V15.3125ZM5.02373 13.1345L5.95851 10.5895L4.19848 9.94303L3.26369 12.488L5.02373 13.1345ZM5.95092 10.6095C6.40698 9.45013 6.86409 8.59829 7.43529 8.0339C7.96661 7.50893 8.64221 7.1875 9.67806 7.1875V5.3125C8.17403 5.3125 7.01724 5.81107 6.11744 6.70016C5.25752 7.54984 4.68479 8.70612 4.20607 9.92305L5.95092 10.6095ZM9.67806 7.1875H12.246V5.3125H9.67806V7.1875ZM4.14372 11.8737H2.54837V13.7487H4.14372V11.8737ZM2.55549 11.8738C1.94902 11.8692 1.37043 12.1121 0.94579 12.5413L2.27858 13.8601C2.35267 13.7853 2.44759 13.748 2.54124 13.7487L2.55549 11.8738ZM0.94579 12.5413C0.521944 12.9696 0.28552 13.5481 0.281214 14.1482L2.15619 14.1617C2.15703 14.0437 2.20371 13.9358 2.27858 13.8601L0.94579 12.5413ZM0.281214 14.155V16.25H2.15622V14.155H0.281214ZM4.14372 13.7487H12.246V11.8737H4.14372V13.7487ZM23.6645 12.488L22.7297 9.94303L20.9697 10.5895L21.9045 13.1345L23.6645 12.488ZM22.7221 9.92305C22.2434 8.70612 21.6707 7.54984 20.8107 6.70016C19.911 5.81107 18.7541 5.3125 17.2501 5.3125V7.1875C18.286 7.1875 18.9616 7.50893 19.4929 8.0339C20.0641 8.59829 20.5212 9.45013 20.9772 10.6095L22.7221 9.92305ZM17.2501 5.3125H12.246V7.1875H17.2501V5.3125ZM22.7845 11.8737H12.246V13.7487H22.7845V11.8737ZM22.7845 13.7487H26.7027V11.8737H22.7845V13.7487ZM26.709 13.7487C26.8977 13.7475 27.0919 13.9096 27.0937 14.1617L28.9687 14.1482C28.9597 12.906 27.9649 11.8653 26.6965 11.8738L26.709 13.7487ZM27.0937 14.155V16.25H28.9687V14.155H27.0937ZM18.6359 20.095H10.8932V21.97H18.6359V20.095ZM23.9545 21.97H26.7016V20.095H23.9545V21.97ZM26.6944 21.97C27.3009 21.9746 27.8795 21.7316 28.3041 21.3025L26.9714 19.9836C26.8972 20.0585 26.8024 20.0957 26.7087 20.095L26.6944 21.97ZM28.3041 21.3025C28.728 20.8741 28.9644 20.2956 28.9687 19.6955L27.0937 19.682C27.0929 19.8 27.0462 19.908 26.9714 19.9836L28.3041 21.3025ZM28.9687 19.6888V16.25H27.0937V19.6888H28.9687ZM5.57453 20.095H2.54837V21.97H5.57453V20.095ZM2.54124 20.095C2.44759 20.0957 2.35267 20.0585 2.27858 19.9836L0.945791 21.3025C1.37043 21.7316 1.94902 21.9746 2.55549 21.97L2.54124 20.095ZM2.27858 19.9836C2.20371 19.908 2.15703 19.8 2.15619 19.682L0.281238 19.6955C0.285544 20.2956 0.521944 20.8741 0.945791 21.3025L2.27858 19.9836ZM2.15622 19.6888V16.25H0.281214L0.281189 19.6888H2.15622ZM11.3085 6.25V12.8112H13.1835V6.25H11.3085ZM1.21871 17.1875H3.64768V15.3125H1.21871V17.1875ZM28.0312 15.3125H25.4999V17.1875H28.0312V15.3125Z" fill="#7707BB"/>
</svg>
