<svg width="31" height="30" viewBox="0 0 31 30" fill="none" xmlns="http://www.w3.org/2000/svg">
<g id="discover_svgrepo.com">
<path id="Vector" d="M17.9922 15.2637V21.6943C17.9922 22.084 17.6758 22.4004 17.2861 22.4004H12.9473V14.5576H17.2861C17.4678 14.5576 17.6318 14.625 17.7578 14.7393L17.9717 15.0967C17.9863 15.1494 17.9922 15.2051 17.9922 15.2637ZM10.082 14.5576V22.4004H5.68164C5.29199 22.4004 4.97559 22.0811 4.97559 21.6943V15.2637C4.97559 14.874 5.29492 14.5576 5.68164 14.5576H10.082Z" fill="#DC0C55"/>
<path id="Vector_2" d="M25.3457 20.1709C25.4863 20.4023 25.4102 20.707 25.1758 20.8476L22.7588 22.289L19.583 16.9746L22.3838 15.2168L25.3457 20.1709ZM21.1211 13.1045L18.332 14.8535C18.2764 14.7129 18.1943 14.5839 18.0889 14.4785L14.9688 9.25485L17.377 7.81344C17.6143 7.67281 17.9219 7.75192 18.0625 7.98922L21.1211 13.1045Z" fill="#FE97AC"/>
<path id="Vector_3" d="M23.2715 9.91992C23.6553 10.8135 23.4472 12.4863 22.3398 14.0449L21.0976 11.9853C21.0537 11.4053 21.0713 9.94335 21.6338 9.38671C21.8125 9.208 22.0293 9.13769 22.2988 9.16406C22.8584 9.21972 23.1338 9.60644 23.2715 9.91992ZM22.5537 14.5078C24.2822 14.3379 25.7265 14.9092 26.2949 15.6006C26.5527 15.9141 26.623 16.2334 26.5117 16.5527C26.4443 16.7373 26.3301 16.8545 26.1572 16.9189C25.5068 17.1445 24.2471 16.5322 23.7666 16.248L22.5537 14.5078Z" fill="#FAF7A6"/>
<path id="Vector_4" d="M22.3809 14.7217L22.6064 15.0762L22.4893 15.1494L22.249 14.8037L22.3809 14.7217Z" fill="#EF4668"/>
<path id="Vector_5" d="M22.249 14.8037L22.4893 15.1494L22.3838 15.2168L22.167 14.8564L22.249 14.8037ZM22.167 14.8564L22.3838 15.2168L19.583 16.9746L19.3691 16.6143L22.167 14.8564Z" fill="#EF4668"/>
<path id="Vector_6" d="M21.335 13.4648L22.167 14.8564L19.3691 16.6143L18.5342 15.2197L21.335 13.4648Z" fill="#FAF7A6"/>
<path id="Vector_7" d="M21.8184 14.1855L22.249 14.8037L22.167 14.8564L21.335 13.4648L21.458 13.3887L21.9268 14.168L21.8184 14.1855ZM21.3789 12.9404L21.6016 13.2979L21.458 13.3887L21.2412 13.0283L21.3789 12.9404ZM21.458 13.3887L21.335 13.4648L21.1211 13.1045L21.2412 13.0283L21.458 13.3887Z" fill="#EF4668"/>
<path id="Vector_8" d="M21.1211 13.1046L21.335 13.4649L18.5342 15.2198L18.3613 14.9297C18.3525 14.9034 18.3438 14.877 18.332 14.8536L21.1211 13.1046ZM26.2949 15.6006C25.7266 14.9092 24.2852 14.338 22.5537 14.5079L23.7666 16.2481C24.2471 16.5323 25.5068 17.1446 26.1572 16.919C26.3301 16.8575 26.4443 16.7403 26.5117 16.5528C26.623 16.2335 26.5527 15.9141 26.2949 15.6006ZM21.6338 9.38678C21.0713 9.94342 21.0508 11.4053 21.0977 11.9854L22.3398 14.045C23.4473 12.4864 23.6553 10.8165 23.2715 9.91998C23.1367 9.60651 22.8584 9.21979 22.3018 9.16705C22.0322 9.13776 21.8125 9.20807 21.6338 9.38678ZM23.6553 9.75299C24.1387 10.878 23.793 12.5919 22.8262 14.0684C24.3994 13.9981 25.9258 14.4903 26.6201 15.334C26.9658 15.7559 27.0684 16.2393 26.9072 16.6934C26.7959 16.9981 26.5908 17.2061 26.2979 17.3116C26.1543 17.3614 25.9961 17.3848 25.832 17.3848C25.1025 17.3848 24.2207 16.9688 23.7842 16.7315L20.6641 11.5225C20.6641 10.8311 20.7578 9.66217 21.3408 9.08795C21.6104 8.82135 21.9473 8.70709 22.3428 8.74518C22.9346 8.8067 23.4004 9.16412 23.6553 9.75299ZM20.6641 11.5225L23.7783 16.7315C23.623 16.6495 23.5264 16.5909 23.5088 16.5792L23.4473 16.5206L22.4863 15.1465L22.6035 15.0733L22.3779 14.7188L22.2461 14.8008L21.8154 14.1827L21.9238 14.1651L21.4551 13.3858L21.5986 13.295L21.376 12.9405L21.2383 13.0255L20.6875 12.1143L20.6816 12.0645C20.6816 12.0411 20.6641 11.8272 20.6641 11.5225ZM19.3691 16.6143L19.583 16.9747L19.3662 17.1094L19.1436 16.7549L19.3691 16.6143Z" fill="#EF4668"/>
<path id="Vector_9" d="M25.3457 20.1709L22.3838 15.2168L22.4893 15.1494L23.4502 16.5234L23.5117 16.582C23.5264 16.5938 23.626 16.6523 23.7812 16.7344L25.7061 19.96C25.9639 20.3906 25.8232 20.9502 25.3926 21.208L22.6182 22.8662L18.4111 15.8262V15.2959L18.5342 15.2168L19.3691 16.6113L19.1436 16.752L19.3662 17.1064L19.583 16.9717L22.7617 22.2861L25.1787 20.8447C25.4102 20.7041 25.4863 20.4023 25.3457 20.1709Z" fill="#EF4668"/>
<path id="Vector_10" d="M18.5342 15.2197L18.4111 15.2988V15.2637C18.4111 15.1465 18.3936 15.0352 18.3613 14.9297L18.5342 15.2197Z" fill="#EF4668"/>
<path id="Vector_11" d="M18.4111 15.2637V15.2988L18.3613 15.3311L18.1387 14.9795L18.3203 14.8652L18.3584 14.9326C18.3936 15.0352 18.4111 15.1465 18.4111 15.2637ZM18.332 14.8535C18.3438 14.877 18.3525 14.9033 18.3613 14.9297L18.3232 14.8623L18.332 14.8535Z" fill="#EF4668"/>
<path id="Vector_12" d="M18.3232 14.8623L18.0918 14.4785C18.1973 14.5869 18.2793 14.7129 18.335 14.8535L18.3232 14.8623ZM17.9717 15.0967L17.7578 14.7393C17.8633 14.8301 17.9395 14.9561 17.9717 15.0967Z" fill="#EF4668"/>
<path id="Vector_13" d="M17.9717 15.0967C17.9365 14.9561 17.8633 14.8301 17.7578 14.7393L17.4033 14.1445C17.6729 14.1738 17.9131 14.2969 18.0889 14.4785L18.3203 14.8623L18.1387 14.9766L18.3613 15.3281L18.4111 15.2959V15.8262L17.9717 15.0967Z" fill="#EF4668"/>
<path id="Vector_14" d="M18.0625 7.99218C17.9219 7.75487 17.6143 7.67577 17.377 7.8164L14.9687 9.2578L18.0889 14.4814C17.9102 14.2998 17.6729 14.1767 17.4033 14.1475L14.3945 9.11132L17.1631 7.45605C17.5967 7.1953 18.1621 7.33886 18.4229 7.77245L20.6641 11.5225C20.6641 11.8271 20.6816 12.041 20.6846 12.0674L20.6904 12.1172L21.2412 13.0283L21.1211 13.1045L18.0625 7.99218ZM12.5283 22.4004H12.9473V22.6084H12.5283V22.4004ZM12.5283 14.5576H12.9473V22.4004H12.5283V14.5576ZM12.5283 14.3467H12.9473V14.5547H12.5283V14.3467ZM12.7598 9.90233V13.1191H12.7568C12.7568 13.2363 12.666 13.3301 12.5518 13.3301C12.4375 13.3301 12.3437 13.2363 12.3437 13.1191H12.3408V9.90233H12.3437C12.3437 9.78808 12.4375 9.6914 12.5518 9.6914C12.666 9.6914 12.7568 9.78808 12.7598 9.90233Z" fill="#EF4668"/>
<path id="Vector_15" d="M10.498 14.5576H12.5283V22.4004H10.498V14.5576Z" fill="#FAF7A6"/>
<path id="Vector_16" d="M12.8945 7.07227L12.4785 7.18652L12.1475 6.9082L12.127 7.3418L11.7578 7.57031L12.1621 7.72266L12.2676 8.14453L12.54 7.80469L12.9736 7.83691L12.7334 7.47363L12.8945 7.07227ZM12.5957 7.94238L12.2031 8.43164L12.0508 7.82227L11.4619 7.59961L11.998 7.26562L12.0273 6.63574L12.5107 7.04297L13.1172 6.87598L12.8799 7.45898L13.2256 7.9834L12.5957 7.94238Z" fill="#EF4668"/>
<path id="Vector_17" d="M12.1445 6.9082L12.4756 7.18652L12.8945 7.07227L12.7305 7.47363L12.9678 7.83691L12.5371 7.80469L12.2646 8.14453L12.1592 7.72266L11.7549 7.57031L12.124 7.3418L12.1445 6.9082Z" fill="#FAF7A6"/>
<path id="Vector_18" d="M10.082 22.4004H10.498V22.6084H10.082V22.4004ZM10.082 14.5576H10.498V22.4004H10.082V14.5576ZM10.082 14.3467H10.498V14.5547H10.082V14.3467ZM9.43457 10.4063L10.4805 12.7939C10.4922 12.8203 10.498 12.8496 10.498 12.876C10.498 12.9932 10.4043 13.0869 10.29 13.0869C10.2051 13.0869 10.1318 13.0342 10.0996 12.958H10.0967L9.05371 10.5703C9.04199 10.5439 9.03613 10.5176 9.03613 10.4883C9.03613 10.3711 9.12988 10.2773 9.24414 10.2773C9.3291 10.2773 9.40234 10.3301 9.43457 10.4063ZM8.33008 13.2275C8.37695 13.2656 8.40625 13.3242 8.40625 13.3887C8.40625 13.5059 8.3125 13.5996 8.19824 13.5996C8.14551 13.5996 8.10156 13.582 8.06641 13.5498L8.33008 13.2275ZM8.19824 13.1807C8.23926 13.1807 8.28027 13.1924 8.31543 13.2158C8.32129 13.2188 8.32715 13.2246 8.33008 13.2275L8.06348 13.5498C8.05762 13.5469 8.05176 13.541 8.05176 13.5381C8.01367 13.5029 7.99023 13.4473 7.99023 13.3887C7.99023 13.2744 8.08398 13.1807 8.19824 13.1807Z" fill="#EF4668"/>
<path id="Vector_19" d="M8.05176 13.5381L6.53418 12.29C6.56934 12.3105 6.60742 12.3252 6.64844 12.3252C6.7627 12.3252 6.85352 12.2314 6.85352 12.1143C6.85352 12.041 6.81836 11.9766 6.7627 11.9385V11.9355L8.31543 13.2129C8.28027 13.1895 8.23926 13.1777 8.19824 13.1777C8.08398 13.1777 7.99023 13.2715 7.99023 13.3887C7.99023 13.4473 8.01367 13.5029 8.05176 13.5381Z" fill="#EF4668"/>
<path id="Vector_20" d="M7.15234 7.35937L6.71289 6.82324L7.40723 6.7998L7.78223 6.21973L8.0166 6.87305L8.68457 7.05176L8.13672 7.47363L8.1748 8.16504L7.60352 7.77539L6.95605 8.02441L7.15234 7.35937Z" fill="#FAF7A6"/>
<path id="Vector_21" d="M7.40723 6.7998L6.71289 6.82031L7.15234 7.35645L6.95605 8.02148L7.60352 7.77246L8.1748 8.16504L8.13965 7.47363L8.6875 7.05176L8.0166 6.87305L7.78516 6.21973L7.40723 6.7998ZM6.9209 7.40625L6.28516 6.62402L7.29004 6.59473L7.83789 5.75098L8.17773 6.7002L9.15039 6.95801L8.35352 7.57324L8.40918 8.57812L7.57422 8.00977L6.63672 8.37305L6.9209 7.40625ZM6.7627 11.9414C6.81836 11.9766 6.85352 12.0439 6.85352 12.1172C6.85352 12.2344 6.7627 12.3281 6.64844 12.3281C6.60742 12.3281 6.56641 12.3164 6.53418 12.293C6.52246 12.2842 6.51074 12.2754 6.50195 12.2637C6.49902 12.2637 6.49609 12.2607 6.49902 12.2578L6.7627 11.9414Z" fill="#EF4668"/>
<path id="Vector_22" d="M6.75977 11.9414L6.49902 12.2607C6.46094 12.2256 6.44043 12.1729 6.44043 12.1172C6.44043 12 6.53418 11.9063 6.64844 11.9063C6.68945 11.9033 6.73047 11.918 6.75977 11.9414Z" fill="#EF4668"/>
<path id="Vector_23" d="M6.49902 12.2578C6.49609 12.2607 6.49902 12.2637 6.50195 12.2637L6.49902 12.2578ZM4.97266 21.6943C4.97266 22.084 5.29199 22.4004 5.67871 22.4004H10.0791V22.6084H10.4951V22.4004H12.5254V22.6084H12.9443V22.4004H17.2832C17.6758 22.4004 17.9893 22.0811 17.9893 21.6943V15.2637C17.9893 15.2051 17.9805 15.1494 17.9687 15.0967L18.4082 15.8262V21.6943C18.4082 22.3154 17.9043 22.8193 17.2832 22.8193H5.68164C5.06055 22.8193 4.55664 22.3154 4.55664 21.6943V15.2637C4.55664 14.6426 5.06055 14.1387 5.68164 14.1387H17.2861C17.3242 14.1387 17.3652 14.1416 17.4033 14.1445L17.7578 14.7393C17.6318 14.625 17.4678 14.5576 17.2861 14.5576H12.9473V14.3496H12.5283V14.5576H10.498V14.3496H10.082V14.5576H5.68164C5.29199 14.5576 4.97559 14.877 4.97559 15.2637V21.6943H4.97266ZM5.74609 10.3535L5.50879 10.9365L5.85449 11.4639L5.22461 11.417L4.83203 11.9092L4.67969 11.2998L4.09082 11.0742L4.62695 10.7432L4.65625 10.1133L5.13672 10.5176L5.74609 10.3535ZM5.3623 10.9541L5.52344 10.5527L5.10742 10.667L4.77637 10.3857L4.75586 10.8193L4.38672 11.0479L4.79395 11.2031L4.89941 11.6221L5.16894 11.2822L5.60254 11.3145L5.3623 10.9541Z" fill="#EF4668"/>
<path id="Vector_24" d="M4.89941 11.6221L4.79395 11.2031L4.38672 11.0479L4.75586 10.8193L4.77637 10.3857L5.10742 10.667L5.52344 10.5527L5.3623 10.9541L5.59961 11.3145L5.16602 11.2822L4.89941 11.6221Z" fill="#FAF7A6"/>
</g>
</svg>
