<svg width="73" height="50" viewBox="0 0 73 50" fill="none" xmlns="http://www.w3.org/2000/svg">
<rect width="73" height="50" rx="8" fill="#ECC9FD"/>
<path d="M42.1485 34.6999H31.4404V15.5989H42.1485V34.6999Z" fill="#FF5F00"/>
<path d="M32.1265 25.1478C32.1265 21.2731 33.9542 17.8215 36.8006 15.5973C34.7191 13.9708 32.0923 13 29.2373 13C22.4787 13 17 18.4387 17 25.1478C17 31.8569 22.4787 37.2956 29.2373 37.2956C32.0923 37.2956 34.7191 36.3248 36.8006 34.6983C33.9542 32.4741 32.1265 29.0225 32.1265 25.1478Z" fill="#EB001B"/>
<path d="M56.5904 25.1478C56.5904 31.8569 51.1117 37.2956 44.3531 37.2956C41.4981 37.2956 38.8713 36.3248 36.7891 34.6983C39.6362 32.4741 41.4639 29.0225 41.4639 25.1478C41.4639 21.2731 39.6362 17.8215 36.7891 15.5973C38.8713 13.9708 41.4981 13 44.3531 13C51.1117 13 56.5904 18.4387 56.5904 25.1478Z" fill="#F79E1B"/>
</svg>
