<svg width="31" height="30" viewBox="0 0 31 30" fill="none" xmlns="http://www.w3.org/2000/svg">
<g id="heart">
<path id="Vector" d="M26.2999 5.76246C25.6615 5.12372 24.9034 4.61702 24.0691 4.27132C23.2348 3.92561 22.3405 3.74768 21.4374 3.74768C20.5343 3.74768 19.64 3.92561 18.8057 4.27132C17.9714 4.61702 17.2134 5.12372 16.5749 5.76246L15.2499 7.08746L13.9249 5.76246C12.6353 4.47285 10.8862 3.74835 9.0624 3.74835C7.23861 3.74835 5.48952 4.47285 4.1999 5.76246C2.91029 7.05208 2.18579 8.80117 2.18579 10.625C2.18579 12.4488 2.91029 14.1978 4.1999 15.4875L5.5249 16.8125L15.2499 26.5375L24.9749 16.8125L26.2999 15.4875C26.9386 14.849 27.4453 14.091 27.791 13.2567C28.1368 12.4223 28.3147 11.5281 28.3147 10.625C28.3147 9.72185 28.1368 8.82759 27.791 7.99327C27.4453 7.15894 26.9386 6.40091 26.2999 5.76246Z" stroke="#9E9B9B" stroke-width="2" stroke-linecap="round" stroke-linejoin="round"/>
</g>
</svg>
