<svg width="122" height="121" viewBox="0 0 122 121" fill="none" xmlns="http://www.w3.org/2000/svg">
<g id="heart">
<path id="Vector" d="M105.189 23.3374C102.624 20.7705 99.5773 18.7343 96.2245 17.345C92.8717 15.9558 89.278 15.2407 85.6487 15.2407C82.0195 15.2407 78.4258 15.9558 75.073 17.345C71.7201 18.7343 68.6739 20.7705 66.1082 23.3374L60.7835 28.662L55.4589 23.3374C50.2764 18.1549 43.2475 15.2434 35.9184 15.2434C28.5893 15.2434 21.5603 18.1549 16.3779 23.3374C11.1954 28.5198 8.28391 35.5488 8.28391 42.8779C8.2839 50.207 11.1954 57.2359 16.3779 62.4184L21.7025 67.743L60.7835 106.824L99.8646 67.743L105.189 62.4184C107.756 59.8527 109.792 56.8065 111.182 53.4536C112.571 50.1008 113.286 46.5071 113.286 42.8779C113.286 39.2486 112.571 35.6549 111.182 32.3021C109.792 28.9493 107.756 25.903 105.189 23.3374Z" stroke="#1E1E1E" stroke-width="8.03723" stroke-linecap="round" stroke-linejoin="round"/>
</g>
</svg>
