<svg width="98" height="98" viewBox="0 0 98 98" fill="none" xmlns="http://www.w3.org/2000/svg">
<rect width="98" height="98" fill="#1E1E1E"/>
<rect width="1728" height="1277" transform="translate(-64 -64)" fill="#F3D9FF"/>
<g clip-path="url(#clip0_0_1)">
<path d="M84.7594 54.299C85.0655 52.4114 85.2179 50.502 85.2149 48.5897C85.2149 38.8763 81.3563 29.5607 74.4878 22.6923C67.6194 15.8238 58.3038 11.9652 48.5904 11.9652C46.6781 11.9622 44.7687 12.1146 42.8811 12.4207C38.6479 9.88495 33.6889 8.83613 28.7916 9.4408C23.8942 10.0455 19.3393 12.269 15.85 15.7582C12.3608 19.2475 10.1373 23.8024 9.5326 28.6998C8.92792 33.5971 9.97674 38.5561 12.5125 42.7893C12.1709 44.7044 11.988 46.6445 11.9659 48.5897C11.9659 58.3031 15.8245 67.6187 22.6929 74.4872C29.5614 81.3556 38.877 85.2142 48.5904 85.2142C50.5027 85.2172 52.4121 85.0648 54.2997 84.7587C58.5328 87.2945 63.4918 88.3433 68.3892 87.7386C73.2865 87.1339 77.8415 84.9104 81.3307 81.4212C84.82 77.9319 87.0435 73.377 87.6482 68.4796C88.2529 63.5823 87.204 58.6233 84.6683 54.3901L84.7594 54.299ZM65.9916 65.2317C64.2774 67.6016 61.9152 69.4259 59.189 70.4855C55.8254 71.8055 52.2333 72.4455 48.6208 72.3683C44.4158 72.5443 40.2325 71.6784 36.443 69.8477C34.2336 68.6601 32.339 66.9632 30.9159 64.8976C29.6123 63.1331 28.8714 61.0163 28.7901 58.8239C28.7869 58.2551 28.9012 57.6917 29.1259 57.1691C29.3506 56.6466 29.6809 56.176 30.0959 55.7871C31.0157 55.0042 32.1998 54.6023 33.4061 54.6634C34.4142 54.6444 35.3953 54.9894 36.1696 55.6352C37.0172 56.428 37.6717 57.4046 38.0829 58.4899C38.6097 59.7581 39.2824 60.9606 40.0872 62.0734C40.8893 63.1006 41.9324 63.9142 43.124 64.4421C44.7427 65.1365 46.4966 65.4583 48.2563 65.3835C50.7627 65.505 53.2452 64.8472 55.3626 63.5007C56.1752 63.0246 56.851 62.3467 57.3246 61.5327C57.7981 60.7186 58.0533 59.796 58.0654 58.8543C58.0916 58.1949 57.978 57.5373 57.732 56.9249C57.486 56.3126 57.1132 55.7592 56.6381 55.3012C55.5567 54.305 54.2564 53.5768 52.842 53.1754C51.2628 52.6591 49.1674 52.1428 46.5253 51.5658C43.491 50.8594 40.5316 49.8628 37.6881 48.5897C35.4506 47.6727 33.4776 46.2112 31.9484 44.3381C30.498 42.4074 29.7482 40.0403 29.8226 37.6266C29.7981 35.1729 30.5885 32.7803 32.0699 30.8241C33.762 28.7218 36.0154 27.1423 38.5688 26.2688C41.7974 25.1964 45.1901 24.7029 48.5904 24.8111C51.251 24.764 53.9032 25.1224 56.4559 25.874C58.4592 26.4688 60.3409 27.4148 62.0133 28.6679C63.3294 29.6564 64.4256 30.9078 65.2324 32.3425C65.8889 33.5015 66.2439 34.8067 66.2649 36.1386C66.261 36.7063 66.1435 37.2675 65.9192 37.7891C65.6949 38.3107 65.3685 38.7821 64.9591 39.1754C64.5458 39.6232 64.0428 39.979 63.483 40.2197C62.9232 40.4604 62.3189 40.5806 61.7096 40.5724C60.7327 40.6484 59.7642 40.3437 59.0068 39.7221C58.2099 38.9542 57.5432 38.0619 57.0329 37.08C56.2807 35.5322 55.1911 34.1728 53.8442 33.1017C52.0766 31.9998 49.996 31.509 47.9223 31.7048C45.7937 31.615 43.6845 32.1423 41.8486 33.2232C41.1817 33.5793 40.6185 34.1022 40.214 34.7409C39.8095 35.3796 39.5774 36.1123 39.5406 36.8674C39.5165 37.6925 39.7855 38.4994 40.2998 39.1451C40.9054 39.8469 41.6499 40.4156 42.4863 40.8153C43.377 41.2761 44.3134 41.6425 45.2802 41.9086C46.252 42.1819 47.8312 42.5767 50.0481 43.093C52.842 43.7004 55.3322 44.3685 57.6099 45.0973C59.6472 45.718 61.5889 46.6173 63.3799 47.7697C64.9421 48.7577 66.2275 50.1267 67.1152 51.748C68.0177 53.5972 68.4357 55.6453 68.33 57.7003C68.3574 60.3935 67.5396 63.0276 65.9916 65.2317Z" fill="#1E1E1E"/>
</g>
<defs>
<clipPath id="clip0_0_1">
<rect width="97.1795" height="97.1795" fill="white"/>
</clipPath>
</defs>
</svg>
