<svg width="31" height="30" viewBox="0 0 31 30" fill="none" xmlns="http://www.w3.org/2000/svg">
<g id="settings" clip-path="url(#clip0_1_1832)">
<path id="Vector" d="M15.25 18.75C17.3211 18.75 19 17.0711 19 15C19 12.9289 17.3211 11.25 15.25 11.25C13.1789 11.25 11.5 12.9289 11.5 15C11.5 17.0711 13.1789 18.75 15.25 18.75Z" stroke="#9E9B9B" stroke-width="2" stroke-linecap="round" stroke-linejoin="round"/>
<path id="Vector_2" d="M24.5 18.75C24.3336 19.127 24.284 19.5452 24.3575 19.9507C24.431 20.3562 24.6243 20.7304 24.9125 21.025L24.9875 21.1C25.2199 21.3322 25.4043 21.6079 25.5301 21.9114C25.656 22.2149 25.7207 22.5402 25.7207 22.8688C25.7207 23.1973 25.656 23.5226 25.5301 23.8261C25.4043 24.1296 25.2199 24.4053 24.9875 24.6375C24.7553 24.8699 24.4796 25.0543 24.1761 25.1801C23.8726 25.306 23.5473 25.3707 23.2188 25.3707C22.8902 25.3707 22.5649 25.306 22.2614 25.1801C21.9579 25.0543 21.6822 24.8699 21.45 24.6375L21.375 24.5625C21.0804 24.2743 20.7062 24.081 20.3007 24.0075C19.8952 23.934 19.477 23.9836 19.1 24.15C18.7303 24.3085 18.415 24.5716 18.1929 24.9069C17.9708 25.2423 17.8516 25.6353 17.85 26.0375V26.25C17.85 26.913 17.5866 27.5489 17.1178 28.0178C16.6489 28.4866 16.013 28.75 15.35 28.75C14.687 28.75 14.0511 28.4866 13.5822 28.0178C13.1134 27.5489 12.85 26.913 12.85 26.25V26.1375C12.8403 25.7238 12.7064 25.3225 12.4656 24.9859C12.2249 24.6493 11.8884 24.3929 11.5 24.25C11.123 24.0836 10.7048 24.034 10.2993 24.1075C9.89377 24.181 9.5196 24.3743 9.225 24.6625L9.15 24.7375C8.91782 24.9699 8.6421 25.1543 8.3386 25.2801C8.03511 25.406 7.70979 25.4707 7.38125 25.4707C7.05271 25.4707 6.72739 25.406 6.4239 25.2801C6.1204 25.1543 5.84468 24.9699 5.6125 24.7375C5.38006 24.5053 5.19566 24.2296 5.06985 23.9261C4.94404 23.6226 4.87928 23.2973 4.87928 22.9688C4.87928 22.6402 4.94404 22.3149 5.06985 22.0114C5.19566 21.7079 5.38006 21.4322 5.6125 21.2L5.6875 21.125C5.97567 20.8304 6.16898 20.4562 6.24251 20.0507C6.31603 19.6452 6.26639 19.227 6.1 18.85C5.94155 18.4803 5.67844 18.165 5.34308 17.9429C5.00772 17.7208 4.61473 17.6016 4.2125 17.6H4C3.33696 17.6 2.70107 17.3366 2.23223 16.8678C1.76339 16.3989 1.5 15.763 1.5 15.1C1.5 14.437 1.76339 13.8011 2.23223 13.3322C2.70107 12.8634 3.33696 12.6 4 12.6H4.1125C4.52624 12.5903 4.92751 12.4564 5.26412 12.2156C5.60074 11.9749 5.85714 11.6384 6 11.25C6.16639 10.873 6.21603 10.4548 6.14251 10.0493C6.06898 9.64377 5.87567 9.2696 5.5875 8.975L5.5125 8.9C5.28006 8.66782 5.09566 8.3921 4.96985 8.0886C4.84404 7.78511 4.77928 7.45979 4.77928 7.13125C4.77928 6.80271 4.84404 6.47739 4.96985 6.1739C5.09566 5.8704 5.28006 5.59468 5.5125 5.3625C5.74468 5.13006 6.0204 4.94566 6.3239 4.81985C6.62739 4.69404 6.95271 4.62928 7.28125 4.62928C7.60979 4.62928 7.93511 4.69404 8.2386 4.81985C8.5421 4.94566 8.81782 5.13006 9.05 5.3625L9.125 5.4375C9.4196 5.72567 9.79377 5.91898 10.1993 5.99251C10.6048 6.06603 11.023 6.01639 11.4 5.85H11.5C11.8697 5.69155 12.185 5.42844 12.4071 5.09308C12.6292 4.75772 12.7484 4.36473 12.75 3.9625V3.75C12.75 3.08696 13.0134 2.45107 13.4822 1.98223C13.9511 1.51339 14.587 1.25 15.25 1.25C15.913 1.25 16.5489 1.51339 17.0178 1.98223C17.4866 2.45107 17.75 3.08696 17.75 3.75V3.8625C17.7516 4.26473 17.8708 4.65772 18.0929 4.99308C18.315 5.32844 18.6303 5.59155 19 5.75C19.377 5.91639 19.7952 5.96603 20.2007 5.89251C20.6062 5.81898 20.9804 5.62567 21.275 5.3375L21.35 5.2625C21.5822 5.03006 21.8579 4.84566 22.1614 4.71985C22.4649 4.59404 22.7902 4.52928 23.1188 4.52928C23.4473 4.52928 23.7726 4.59404 24.0761 4.71985C24.3796 4.84566 24.6553 5.03006 24.8875 5.2625C25.1199 5.49468 25.3043 5.7704 25.4301 6.0739C25.556 6.37739 25.6207 6.70271 25.6207 7.03125C25.6207 7.35979 25.556 7.68511 25.4301 7.9886C25.3043 8.2921 25.1199 8.56782 24.8875 8.8L24.8125 8.875C24.5243 9.1696 24.331 9.54377 24.2575 9.94926C24.184 10.3548 24.2336 10.773 24.4 11.15V11.25C24.5585 11.6197 24.8216 11.935 25.1569 12.1571C25.4923 12.3792 25.8853 12.4984 26.2875 12.5H26.5C27.163 12.5 27.7989 12.7634 28.2678 13.2322C28.7366 13.7011 29 14.337 29 15C29 15.663 28.7366 16.2989 28.2678 16.7678C27.7989 17.2366 27.163 17.5 26.5 17.5H26.3875C25.9853 17.5016 25.5923 17.6208 25.2569 17.8429C24.9216 18.065 24.6585 18.3803 24.5 18.75Z" stroke="#9E9B9B" stroke-width="2" stroke-linecap="round" stroke-linejoin="round"/>
</g>
<defs>
<clipPath id="clip0_1_1832">
<rect width="30" height="30" fill="white" transform="translate(0.25)"/>
</clipPath>
</defs>
</svg>
