<svg width="278" height="279" viewBox="0 0 278 279" fill="none" xmlns="http://www.w3.org/2000/svg">
<rect width="278" height="279" fill="#1E1E1E"/>
<rect x="-76" y="-160" width="430" height="972" rx="8" fill="#F3D9FF"/>
<path d="M81.6425 130.844C77.8135 127.015 71.5912 127.015 67.7622 130.844C63.9331 134.673 63.9331 140.895 67.7622 144.724L112.993 189.955C114.907 191.87 117.301 192.827 119.933 192.827C120.172 192.827 120.172 192.827 120.412 192.827C123.044 192.588 125.677 191.391 127.591 189.237L240.788 53.545C244.138 49.4766 243.66 43.2544 239.591 39.6646C235.523 36.3142 229.301 36.7928 225.711 40.8612L119.215 168.417L81.6425 130.844Z" fill="#17AB13"/>
<path d="M212.309 21.2373C157.267 -13.2242 86.6682 -5.08746 40.7195 40.8613C-13.366 94.9467 -13.366 183.254 40.7195 237.34C67.7622 264.383 103.42 278.024 138.839 278.024C174.258 278.024 209.916 264.383 236.959 237.34C283.147 191.152 291.044 120.314 256.343 65.2715C253.472 60.7245 247.489 59.2886 242.942 62.1604C238.395 65.0322 236.959 71.0151 239.831 75.5621C269.745 122.947 262.805 183.733 223.079 223.46C176.651 269.887 100.788 269.887 54.3605 223.46C7.93318 177.032 7.93318 101.169 54.3605 54.7416C94.087 15.2544 154.634 8.31425 202.019 37.7501C206.566 40.6219 212.549 39.186 215.42 34.639C218.292 30.092 216.856 24.1091 212.309 21.2373Z" fill="#4A4A4A"/>
</svg>
