<svg width="122" height="121" viewBox="0 0 122 121" fill="none" xmlns="http://www.w3.org/2000/svg">
<g id="shopping-cart">
<path id="Vector" d="M45.8683 110.692C48.6426 110.692 50.8916 108.443 50.8916 105.668C50.8916 102.894 48.6426 100.645 45.8683 100.645C43.094 100.645 40.845 102.894 40.845 105.668C40.845 108.443 43.094 110.692 45.8683 110.692Z" stroke="#1E1E1E" stroke-width="8.03723" stroke-linecap="round" stroke-linejoin="round"/>
<path id="Vector_2" d="M101.125 110.692C103.899 110.692 106.148 108.443 106.148 105.668C106.148 102.894 103.899 100.645 101.125 100.645C98.3503 100.645 96.1013 102.894 96.1013 105.668C96.1013 108.443 98.3503 110.692 101.125 110.692Z" stroke="#1E1E1E" stroke-width="8.03723" stroke-linecap="round" stroke-linejoin="round"/>
<path id="Vector_3" d="M5.68231 5.20312H25.7754L39.2378 72.4647C39.6971 74.7774 40.9552 76.8548 42.7919 78.3334C44.6286 79.8119 46.9269 80.5973 49.2843 80.5522H98.1105C100.468 80.5973 102.766 79.8119 104.603 78.3334C106.44 76.8548 107.698 74.7774 108.157 72.4647L116.194 30.3195H30.7987" stroke="#1E1E1E" stroke-width="8.03723" stroke-linecap="round" stroke-linejoin="round"/>
</g>
</svg>
